PathFileType	4	(X/Y/Z)	C:\Users\italobelli\Desktop\GitHub\PTbot_officialCBL\Personal_Results\SHRUG01_noisy1.trc
DataRate	CameraRate	NumFrames	NumMarkers	Units	OrigDataRate	OrigDataStartFrame	OrigNumFrames
110.888889	110.888889	25	9	m	110.888889	438	500
Frame#	Time		gu		centelbow		EpL		centpxt8		centijc7		ij		ts		aa		ai
			X1	Y1	Z1	X2	Y2	Z2	X3	Y3	Z3	X4	Y4	Z4	X5	Y5	Z5	X6	Y6	Z6	X7	Y7	Z7	X8	Y8	Z8	X9	Y9	Z9

438	3.9409	-0.082237	-0.012574	0.16482	-0.10474	-0.25304	0.2015	-0.082334	-0.24814	0.22416	-0.046816	-0.15316	-0.008669	-0.046816	0.031938	-0.008669	0	0	0	-0.14003	0.03011	0.054081	-0.10915	0.026099	0.16921	-0.16426	-0.080483	0.062127
439	3.9499	-0.082236	-0.012545	0.16482	-0.10473	-0.25312	0.20166	-0.082326	-0.24821	0.22431	-0.046816	-0.15316	-0.008669	-0.046816	0.031938	-0.008669	0	0	0	-0.14004	0.030105	0.054094	-0.10915	0.026112	0.16922	-0.16427	-0.080487	0.06216
440	3.9589	-0.082234	-0.012517	0.16482	-0.10472	-0.25318	0.20181	-0.082318	-0.24827	0.22447	-0.046816	-0.15316	-0.008669	-0.046816	0.031938	-0.008669	0	0	0	-0.14004	0.0301	0.054106	-0.10915	0.026125	0.16923	-0.16428	-0.080491	0.062192
441	3.9679	-0.082232	-0.012488	0.16483	-0.10471	-0.25324	0.20197	-0.082308	-0.24833	0.22463	-0.046816	-0.15316	-0.008669	-0.046816	0.031938	-0.008669	0	0	0	-0.14005	0.030095	0.054119	-0.10915	0.026138	0.16925	-0.1643	-0.080495	0.062225
442	3.977	-0.082228	-0.012459	0.16483	-0.1047	-0.25329	0.20212	-0.082298	-0.24838	0.22478	-0.046816	-0.15316	-0.008669	-0.046816	0.031938	-0.008669	0	0	0	-0.14006	0.030091	0.054132	-0.10915	0.026152	0.16926	-0.16431	-0.080499	0.062258
443	3.986	-0.082224	-0.01243	0.16483	-0.10469	-0.25334	0.20228	-0.082288	-0.24842	0.22494	-0.046816	-0.15316	-0.008669	-0.046816	0.031938	-0.008669	0	0	0	-0.14006	0.030088	0.054145	-0.10915	0.026167	0.16927	-0.16432	-0.080502	0.062292
444	3.995	-0.082219	-0.0124	0.16484	-0.10468	-0.25338	0.20243	-0.082277	-0.24846	0.22509	-0.046816	-0.15316	-0.008669	-0.046816	0.031938	-0.008669	0	0	0	-0.14007	0.030084	0.054158	-0.10915	0.026182	0.16928	-0.16432	-0.080505	0.062325
445	4.004	-0.082213	-0.012371	0.16484	-0.10466	-0.25341	0.20259	-0.082264	-0.24849	0.22525	-0.046816	-0.15316	-0.008669	-0.046816	0.031938	-0.008669	0	0	0	-0.14007	0.030082	0.054172	-0.10915	0.026198	0.1693	-0.16433	-0.080508	0.062359
446	4.013	-0.082206	-0.01234	0.16485	-0.10465	-0.25344	0.20275	-0.08225	-0.24852	0.22541	-0.046816	-0.15316	-0.008669	-0.046816	0.031938	-0.008669	0	0	0	-0.14008	0.030079	0.054187	-0.10915	0.026216	0.16931	-0.16434	-0.080511	0.062396
447	4.022	-0.082196	-0.012309	0.16486	-0.10463	-0.25347	0.20291	-0.082232	-0.24854	0.22557	-0.046816	-0.15316	-0.008669	-0.046816	0.031938	-0.008669	0	0	0	-0.14008	0.030077	0.054204	-0.10914	0.026235	0.16932	-0.16434	-0.080514	0.062435
448	4.0311	-0.082185	-0.012277	0.16487	-0.10461	-0.2535	0.20307	-0.082212	-0.24857	0.22573	-0.046816	-0.15316	-0.008669	-0.046816	0.031938	-0.008669	0	0	0	-0.14008	0.030074	0.054222	-0.10913	0.026256	0.16934	-0.16435	-0.080517	0.062476
449	4.0401	-0.082171	-0.012244	0.16488	-0.10459	-0.25352	0.20324	-0.082189	-0.24858	0.2259	-0.046816	-0.15316	-0.008669	-0.046816	0.031938	-0.008669	0	0	0	-0.14008	0.030072	0.054242	-0.10913	0.026278	0.16936	-0.16434	-0.08052	0.062521
450	4.0491	-0.082156	-0.01221	0.1649	-0.10457	-0.25354	0.20341	-0.082164	-0.2486	0.22607	-0.046816	-0.15316	-0.008669	-0.046816	0.031938	-0.008669	0	0	0	-0.14008	0.030069	0.054263	-0.10912	0.026301	0.16938	-0.16434	-0.080523	0.062568
451	4.0581	-0.08214	-0.012176	0.16492	-0.10454	-0.25356	0.20359	-0.082136	-0.24861	0.22624	-0.046816	-0.15316	-0.008669	-0.046816	0.031938	-0.008669	0	0	0	-0.14008	0.030067	0.054285	-0.10911	0.026326	0.1694	-0.16433	-0.080526	0.062617
452	4.0671	-0.082121	-0.01214	0.16494	-0.10451	-0.25358	0.20376	-0.082105	-0.24862	0.22642	-0.046816	-0.15316	-0.008669	-0.046816	0.031938	-0.008669	0	0	0	-0.14008	0.030064	0.054309	-0.10909	0.026352	0.16942	-0.16433	-0.080529	0.062669
453	4.0762	-0.082101	-0.012104	0.16496	-0.10448	-0.25359	0.20394	-0.082072	-0.24863	0.22659	-0.046816	-0.15316	-0.008669	-0.046816	0.031938	-0.008669	0	0	0	-0.14008	0.030062	0.054334	-0.10908	0.026379	0.16944	-0.16432	-0.080533	0.062723
454	4.0852	-0.082079	-0.012067	0.16499	-0.10445	-0.2536	0.20413	-0.082037	-0.24864	0.22677	-0.046816	-0.15316	-0.008669	-0.046816	0.031938	-0.008669	0	0	0	-0.14008	0.030059	0.054361	-0.10906	0.026408	0.16947	-0.1643	-0.080536	0.062779
455	4.0942	-0.082056	-0.01203	0.16502	-0.10441	-0.25361	0.20431	-0.081999	-0.24864	0.22696	-0.046816	-0.15316	-0.008669	-0.046816	0.031938	-0.008669	0	0	0	-0.14007	0.030057	0.054389	-0.10904	0.026438	0.16949	-0.16429	-0.080539	0.062838
456	4.1032	-0.082031	-0.011991	0.16504	-0.10437	-0.25362	0.2045	-0.081959	-0.24864	0.22714	-0.046816	-0.15316	-0.008669	-0.046816	0.031938	-0.008669	0	0	0	-0.14007	0.030055	0.054418	-0.10903	0.026469	0.16952	-0.16427	-0.080542	0.062898
457	4.1122	-0.082005	-0.011952	0.16508	-0.10433	-0.25362	0.20469	-0.081917	-0.24864	0.22733	-0.046816	-0.15316	-0.008669	-0.046816	0.031938	-0.008669	0	0	0	-0.14006	0.030052	0.054448	-0.109	0.026502	0.16955	-0.16425	-0.080545	0.062961
458	4.1212	-0.081977	-0.011912	0.16511	-0.10429	-0.25362	0.20489	-0.081873	-0.24864	0.22752	-0.046816	-0.15316	-0.008669	-0.046816	0.031938	-0.008669	0	0	0	-0.14005	0.03005	0.05448	-0.10898	0.026535	0.16957	-0.16423	-0.080548	0.063026
459	4.1303	-0.081948	-0.011872	0.16515	-0.10425	-0.25362	0.20509	-0.081826	-0.24863	0.22771	-0.046816	-0.15316	-0.008669	-0.046816	0.031938	-0.008669	0	0	0	-0.14004	0.030048	0.054512	-0.10896	0.02657	0.1696	-0.16421	-0.080551	0.063093
460	4.1393	-0.081917	-0.011831	0.16518	-0.1042	-0.25362	0.20529	-0.081778	-0.24862	0.22791	-0.046816	-0.15316	-0.008669	-0.046816	0.031938	-0.008669	0	0	0	-0.14004	0.030046	0.054546	-0.10894	0.026606	0.16963	-0.16418	-0.080555	0.063162
461	4.1483	-0.081885	-0.011789	0.16522	-0.10416	-0.25362	0.20549	-0.081728	-0.24861	0.22811	-0.046816	-0.15316	-0.008669	-0.046816	0.031938	-0.008669	0	0	0	-0.14003	0.030043	0.054581	-0.10891	0.026642	0.16966	-0.16415	-0.080558	0.063233
462	4.1573	-0.081852	-0.011747	0.16526	-0.10411	-0.25361	0.20569	-0.081675	-0.2486	0.22831	-0.046816	-0.15316	-0.008669	-0.046816	0.031938	-0.008669	0	0	0	-0.14002	0.030041	0.054617	-0.10888	0.02668	0.1697	-0.16413	-0.080561	0.063306
